<?xml version="1.0" encoding="UTF-8"?><svg id="a" xmlns="http://www.w3.org/2000/svg" viewBox="0 0 87.1 32.03"><defs><style>.b{fill:#cbd300;}.c{fill:#0092d0;}.d{fill:#83b81a;}</style></defs><path class="c" d="M27.01,3.09c2.44-1.2,16.84-6.01,32.27-.52,15.43,5.49,16.19,15.6,16.23,16.31,.06,.93,.27,3.04-2.03,.28-2.29-2.76-8.6-8.81-18.28-12.56-9.68-3.76-19.02-3.15-26.1-1.6-6.4,1.4-3.34-1.3-2.1-1.91"/><path class="d" d="M36.66,14.16c14.01,.47,22.78,6.63,26.05,9.56,3.27,2.93,1.69,4.09-.46,2.58-2.15-1.52-14.25-8.89-26.34-7.88-12.08,1.01-19.23,5.02-24.83,10.46-8.07,7.84-8.89-1.6-5.31-4.24,8.19-6.04,15.66-10.99,30.89-10.47"/><path class="b" d="M79.86,21.02c1.92,1.95,5.76,8.47,1.72,5.75-3.68-2.48-4.24-3.06-4.28-3.97-.05-1.33,.76-3.61,2.56-1.78"/><path class="b" d="M73.68,25.33c.85-1.94,2-.18,3.31,1.48,1.31,1.66,3.12,4.3,2.42,4.79s-2.12-.55-4.09-2.15c-2.11-1.72-2.44-2.3-1.64-4.13"/><path class="b" d="M66.08,27c.09-1.89,.97-3.48,3-.62,1.65,2.33,3.93,5.57,3.07,5.64-1.75,.15-6.17-3.01-6.07-5.03"/></svg>