<svg width="43" height="43" viewBox="0 0 43 43" fill="none" xmlns="http://www.w3.org/2000/svg">
<g filter="url(#filter0_d_9_54)">
<circle cx="21.5" cy="17.5" r="17.5" fill="white"/>
</g>
<g clip-path="url(#clip0_9_54)">
<path d="M31.0156 12.25H30.6875V10.2812C30.6875 8.44375 26.6188 7 21.5 7C16.3812 7 12.3125 8.44375 12.3125 10.2812V12.25H11.9844C11.4409 12.25 11 12.6905 11 13.2344V16.5156C11 17.0591 11.4409 17.5 11.9844 17.5H12.3125V24.0625C12.3125 24.7872 12.9003 25.375 13.625 25.375V26.6875C13.625 27.4122 14.2128 28 14.9375 28H16.25C16.9747 28 17.5625 27.4122 17.5625 26.6875V25.375H25.4375V26.6875C25.4375 27.4122 26.0253 28 26.75 28H28.0625C28.7872 28 29.375 27.4122 29.375 26.6875V25.375H29.6375C30.2937 25.375 30.6875 24.85 30.6875 24.325V17.5H31.0156C31.5591 17.5 32 17.0591 32 16.5156V13.2344C32 12.6905 31.5591 12.25 31.0156 12.25ZM15.5938 23.4062C14.869 23.4062 14.2812 22.8185 14.2812 22.0938C14.2812 21.369 14.869 20.7812 15.5938 20.7812C16.3185 20.7812 16.9062 21.369 16.9062 22.0938C16.9062 22.8185 16.3185 23.4062 15.5938 23.4062ZM16.25 18.8125C15.5253 18.8125 14.9375 18.2247 14.9375 17.5V12.25C14.9375 11.5253 15.5253 10.9375 16.25 10.9375H26.75C27.4747 10.9375 28.0625 11.5253 28.0625 12.25V17.5C28.0625 18.2247 27.4747 18.8125 26.75 18.8125H16.25ZM27.4062 23.4062C26.6815 23.4062 26.0938 22.8185 26.0938 22.0938C26.0938 21.369 26.6815 20.7812 27.4062 20.7812C28.131 20.7812 28.7188 21.369 28.7188 22.0938C28.7188 22.8185 28.131 23.4062 27.4062 23.4062Z" fill="#6C9E00"/>
</g>
<defs>
<filter id="filter0_d_9_54" x="0" y="0" width="43" height="43" filterUnits="userSpaceOnUse" color-interpolation-filters="sRGB">
<feFlood flood-opacity="0" result="BackgroundImageFix"/>
<feColorMatrix in="SourceAlpha" type="matrix" values="0 0 0 0 0 0 0 0 0 0 0 0 0 0 0 0 0 0 127 0" result="hardAlpha"/>
<feOffset dy="4"/>
<feGaussianBlur stdDeviation="2"/>
<feComposite in2="hardAlpha" operator="out"/>
<feColorMatrix type="matrix" values="0 0 0 0 0 0 0 0 0 0 0 0 0 0 0 0 0 0 0.25 0"/>
<feBlend mode="normal" in2="BackgroundImageFix" result="effect1_dropShadow_9_54"/>
<feBlend mode="normal" in="SourceGraphic" in2="effect1_dropShadow_9_54" result="shape"/>
</filter>
<clipPath id="clip0_9_54">
<rect width="21" height="21" fill="white" transform="translate(11 7)"/>
</clipPath>
</defs>
</svg>
